#!OML:ASF F:\VICON\USERDATA\INSTALL\rory3\rory3.ASF
:FULLY-SPECIFIED
:DEGREES
48
root -0.813251 17.3692 -4.07389 4.12702 -9.14358 -5.82164
lowerback 19.104 -0.709802 4.0284
upperback 2.99341 0.018443 1.82691
thorax -7.45834 -0.0823013 -0.326509
lowerneck -3.41163 3.80886 0.951814
upperneck -13.2812 4.5647 -5.42201
head -3.5575 2.41113 -2.04365
rclavicle 1.65985e-014 -5.96354e-016
rhumerus -32.9287 18.2729 -77.4497
rradius 92.7249
rwrist -7.39273
rhand -35.164 31.4403
rfingers 7.12502
rthumb -8.30308 1.6235
lclavicle 1.65985e-014 -5.96354e-016
lhumerus -43.1871 -13.3343 94.2053
lradius 105.255
lwrist 27.1546
lhand -37.4063 12.3594
lfingers 7.12502
lthumb -10.4666 42.0789
rfemur -23.3825 7.20349 30.9391
rtibia 41.8479
rfoot -12.9336 -7.57227
rtoes 6.64831
lfemur -5.38432 16.79 -10.6651
ltibia 105.07
lfoot 19.7371 -3.35277
ltoes 4.54801
49
root -0.817065 17.3055 -3.61051 4.70507 -9.1115 -6.97267
lowerback 18.9056 -0.722148 5.0558
upperback 2.89505 0.227712 2.14907
thorax -7.44722 -0.00561107 -0.613566
lowerneck -2.77382 3.83951 1.08103
upperneck -13.9076 4.57488 -5.52416
head -3.89492 2.4274 -2.14167
rclavicle 3.32964e-014 -3.9906e-014
rhumerus -30.3959 18.8026 -76.8745
rradius 93.4172
rwrist -7.72646
rhand -34.8698 31.6818
rfingers 7.12502
rthumb -8.01909 1.85398
lclavicle 3.32964e-014 -3.9906e-014
lhumerus -44.7057 -12.3624 94.2246
lradius 104.806
lwrist 27.8452
lhand -37.6685 12.3621
lfingers 7.12502
lthumb -10.7195 42.0686
rfemur -22.6788 6.93208 32.1663
rtibia 42.8845
rfoot -14.2017 -8.18992
rtoes 0.140857
lfemur -8.92079 17.8312 -8.65057
ltibia 108.514
lfoot 17.6409 -5.71657
ltoes -4.01609
50
root -0.824154 17.2656 -3.12332 5.25848 -9.40047 -7.28409
lowerback 18.1718 -0.504236 5.23642
upperback 2.96794 0.494035 2.17606
thorax -6.95611 0.129441 -0.754397
lowerneck -2.51363 3.7468 1.29916
upperneck -14.3531 4.42237 -5.65728
head -4.10399 2.35319 -2.24611
rclavicle 6.16232e-015 2.20154e-014
rhumerus -27.7628 18.9711 -76.3658
rradius 94.2874
rwrist -7.75992
rhand -34.4231 31.0306
rfingers 7.12502
rthumb -7.58794 1.18675
lclavicle 6.16232e-015 2.20154e-014
lhumerus -46.0112 -11.805 94.2213
lradius 104.548
lwrist 28.7204
lhand -37.6753 11.9376
lfingers 7.12502
lthumb -10.7261 41.6438
rfemur -21.8403 7.24222 32.2589
rtibia 43.5181
rfoot -15.7824 -8.23209
rtoes -2.24239
lfemur -12.4837 18.8745 -8.1859
ltibia 111.203
lfoot 15.9186 -7.14472
ltoes -5.33179
51
root -0.833203 17.2301 -2.65208 5.51343 -9.10694 -7.2569
lowerback 17.6716 -0.448366 5.15639
upperback 3.14605 0.506778 2.17123
thorax -6.49265 0.149591 -0.718809
lowerneck -2.86739 3.50796 1.36771
upperneck -14.1452 4.10039 -5.70735
head -3.97259 2.18624 -2.251
rclavicle -1.5381e-014 -1.81391e-014
rhumerus -25.0344 18.8522 -75.8657
rradius 95.2554
rwrist -7.38332
rhand -34.2675 30.668
rfingers 7.12502
rthumb -7.43779 0.818725
lclavicle -1.5381e-014 -1.81391e-014
lhumerus -46.9697 -11.4112 94.1303
lradius 104.33
lwrist 29.7365
lhand -37.7451 12.0249
lfingers 7.12502
lthumb -10.7934 41.7276
rfemur -20.7068 7.21274 32.0851
rtibia 43.9251
rfoot -16.8243 -8.66218
rtoes -4.52209
lfemur -16.1471 19.151 -8.34777
ltibia 113.432
lfoot 15.0042 -7.68627
ltoes -4.23442
52
root -0.836698 17.1797 -2.21488 5.34892 -8.08025 -7.3519
lowerback 18.0159 -0.668303 5.39931
upperback 3.24898 0.288844 2.22074
thorax -6.5771 0.0394078 -0.75253
lowerneck -3.35394 3.25655 1.39117
upperneck -13.7202 3.78005 -5.65846
head -3.74219 2.01473 -2.20517
rclavicle 1.22253e-014 5.07398e-014
rhumerus -22.6611 18.6618 -75.5044
rradius 96.3083
rwrist -6.81068
rhand -35.2242 30.8256
rfingers 7.12502
rthumb -8.3611 1.01112
lclavicle 1.22253e-014 5.07398e-014
lhumerus -47.8404 -11.161 93.9907
lradius 104.233
lwrist 30.8318
lhand -37.6857 12.6587
lfingers 7.12502
lthumb -10.7362 42.3643
rfemur -18.814 6.55456 32.2506
rtibia 44.1173
rfoot -17.4916 -9.4481
rtoes -7.23157
lfemur -20.3395 18.4388 -8.66941
ltibia 115.489
lfoot 13.7946 -7.85584
ltoes -7.11991
53
root -0.836357 17.1441 -1.74602 5.58572 -7.79825 -7.54661
lowerback 17.8804 -0.494445 5.61361
upperback 3.11792 0.560207 2.29367
thorax -6.62969 0.164454 -0.857764
lowerneck -3.55995 3.04159 1.33053
upperneck -13.3065 3.51896 -5.53358
head -3.57032 1.87782 -2.13026
rclavicle 1.00883e-014 4.47266e-015
rhumerus -20.6219 18.5131 -74.9832
rradius 97.3468
rwrist -6.48631
rhand -36.435 30.9194
rfingers 7.12502
rthumb -9.52956 1.15491
lclavicle 1.00883e-014 4.47266e-015
lhumerus -49.0208 -11.1604 94.2082
lradius 104.3
lwrist 31.9276
lhand -37.781 13.3121
lfingers 7.12502
lthumb -10.828 43.013
rfemur -16.9942 6.42756 32.4515
rtibia 44.0237
rfoot -18.1281 -10.108
rtoes -11.1982
lfemur -24.4765 18.3399 -9.12002
ltibia 116.847
lfoot 12.7014 -7.85371
ltoes -10.3099
54
root -0.840044 17.1398 -1.26466 5.89755 -7.72923 -7.75208
lowerback 17.707 -0.175231 5.70685
upperback 2.75507 1.01273 2.40142
thorax -6.90366 0.371465 -0.897693
lowerneck -2.90211 2.79973 1.32115
upperneck -13.0862 3.20084 -5.56399
head -3.62798 1.72817 -2.14476
rclavicle -1.13463e-014 -4.16951e-014
rhumerus -19.0873 18.4271 -74.5417
rradius 98.5133
rwrist -6.21806
rhand -36.7099 30.2953
rfingers 7.12502
rthumb -9.79474 0.543083
lclavicle -1.13463e-014 -4.16951e-014
lhumerus -50.5898 -11.3834 94.6617
lradius 104.505
lwrist 32.6989
lhand -38.1374 13.2625
lfingers 7.12502
lthumb -11.1718 42.9451
rfemur -15.2 6.37785 32.5998
rtibia 43.5948
rfoot -18.8602 -10.1994
rtoes -13.94
lfemur -27.9479 18.2943 -9.54033
ltibia 117.42
lfoot 11.427 -7.57328
ltoes -11.4184
55
root -0.844567 17.1593 -0.777974 6.33247 -7.94231 -8.04577
lowerback 17.3091 0.268467 5.80512
upperback 2.48171 1.60732 2.51562
thorax -6.94991 0.653315 -0.962827
lowerneck -2.47043 2.47735 1.15102
upperneck -12.7913 2.78591 -5.47281
head -3.62446 1.52974 -2.07877
rclavicle -3.31225e-014 -7.77745e-015
rhumerus -18.2039 17.9105 -74.3122
rradius 100.001
rwrist -5.99857
rhand -36.4248 29.9296
rfingers 7.12502
rthumb -9.51972 0.164688
lclavicle -3.31225e-014 -7.77745e-015
lhumerus -51.7912 -11.7732 95.1207
lradius 104.73
lwrist 33.0865
lhand -37.9464 12.1651
lfingers 7.12502
lthumb -10.9875 41.8576
rfemur -13.388 6.66914 32.7687
rtibia 42.904
rfoot -19.639 -9.8955
rtoes -15.3167
lfemur -31.4044 18.5026 -9.97298
ltibia 117.385
lfoot 10.0519 -7.50889
ltoes -13.0855
56
root -0.848859 17.2018 -0.305687 6.67471 -7.90963 -8.41637
lowerback 17.2168 0.636398 6.08877
upperback 2.34625 2.1487 2.57371
thorax -7.00682 0.905023 -1.18095
lowerneck -2.88842 2.07563 1.1504
upperneck -12.1963 2.27495 -5.40012
head -3.35799 1.26217 -2.02092
rclavicle -5.60324e-015 -4.29375e-014
rhumerus -17.5766 16.7853 -74.3057
rradius 101.599
rwrist -5.95332
rhand -36.1342 30.4687
rfingers 7.12502
rthumb -9.23929 0.691133
lclavicle -5.60324e-015 -4.29375e-014
lhumerus -52.5773 -12.3618 95.3373
lradius 105.047
lwrist 33.0903
lhand -37.3399 12.144
lfingers 7.12502
lthumb -10.4025 41.8667
rfemur -11.5061 7.01742 33.0668
rtibia 41.8875
rfoot -18.7964 -10.079
rtoes -21.0344
lfemur -35.3575 18.2563 -10.479
ltibia 116.902
lfoot 9.61378 -7.34381
ltoes -13.1601
57
root -0.846733 17.238 0.161825 6.69234 -7.52943 -8.55728
lowerback 17.5539 0.790054 6.30931
upperback 2.16225 2.42859 2.5151
thorax -7.36194 1.01979 -1.44053
lowerneck -3.19537 1.8372 1.33191
upperneck -11.6233 1.97983 -5.37543
head -3.11301 1.09715 -2.02116
rclavicle 1.85242e-014 9.44227e-016
rhumerus -17.366 15.7629 -74.6518
rradius 103.387
rwrist -6.12378
rhand -36.1639 31.3956
rfingers 7.12502
rthumb -9.26795 1.61928
lclavicle 1.85242e-014 9.44227e-016
lhumerus -53.3939 -12.7644 95.3204
lradius 105.325
lwrist 33.0215
lhand -36.935 13.5959
lfingers 7.12502
lthumb -10.0119 43.3377
rfemur -9.32519 7.04947 33.177
rtibia 40.6958
rfoot -17.858 -9.9929
rtoes -22.5272
lfemur -37.5397 17.3075 -10.9371
ltibia 115.816
lfoot 7.92188 -6.92804
ltoes -11.9753
58
root -0.838663 17.3076 0.658819 6.56674 -7.3234 -8.771
lowerback 17.8434 0.974345 6.66159
upperback 2.04695 2.76423 2.42538
thorax -7.60203 1.15972 -1.82159
lowerneck -3.69045 1.72234 1.45361
upperneck -10.8801 1.87318 -5.15277
head -2.77314 1.01931 -1.94247
rclavicle 2.60781e-014 5.63555e-014
rhumerus -17.0948 15.1066 -75.0157
rradius 105.03
rwrist -6.51291
rhand -36.7622 32.1132
rfingers 7.12502
rthumb -9.84525 2.36342
lclavicle 2.60781e-014 5.63555e-014
lhumerus -54.0858 -13.1052 95.2669
lradius 105.537
lwrist 32.7398
lhand -39.1157 28.4102
lfingers 7.12502
lthumb -12.1152 58.0394
rfemur -6.70059 7.13892 33.3292
rtibia 39.2593
rfoot -16.3686 -9.55
rtoes -22.2934
lfemur -39.465 16.1794 -11.3438
ltibia 114.15
lfoot 6.79843 -6.35354
ltoes -10.0472
59
root -0.825002 17.3719 1.13491 6.46036 -6.19031 -9.1413
lowerback 18.2162 0.819199 7.58814
upperback 1.98412 2.77452 2.32502
thorax -7.82531 1.12469 -2.46439
lowerneck -4.53451 1.44756 1.49577
upperneck -10.2604 1.5519 -4.79044
head -2.42684 0.832749 -1.80326
rclavicle 3.51072e-014 4.18752e-014
rhumerus -16.2691 14.4571 -75.2706
rradius 106.242
rwrist -7.1808
rhand -36.7607 31.823
rfingers 7.12502
rthumb -9.84378 2.07309
lclavicle 3.51072e-014 4.18752e-014
lhumerus -54.4871 -13.5898 95.1303
lradius 105.852
lwrist 31.8883
lhand -39.1264 26.0322
lfingers 7.12502
lthumb -12.1255 55.6609
rfemur -4.31893 6.60148 33.7335
rtibia 37.6976
rfoot -14.2624 -8.77397
rtoes -22.4313
lfemur -42.0414 14.1652 -11.6148
ltibia 112.316
lfoot 6.86415 -5.89257
ltoes -8.03317
60
root -0.807419 17.4477 1.64066 6.33041 -5.36546 -9.19588
lowerback 18.353 0.711125 8.14155
upperback 1.92589 2.74963 2.17456
thorax -7.93265 1.0872 -2.93686
lowerneck -5.19624 1.21688 1.3978
upperneck -9.73503 1.28252 -4.48093
head -2.14702 0.683048 -1.66698
rclavicle 1.19426e-014 1.37161e-014
rhumerus -15.7837 14.2669 -75.588
rradius 107.385
rwrist -8.03753
rhand -36.8672 32.5958
rfingers 7.12502
rthumb -9.94654 2.85075
lclavicle 1.19426e-014 1.37161e-014
lhumerus -54.9037 -13.6794 94.9085
lradius 106.131
lwrist 30.9055
lhand -37.3329 15.9793
lfingers 7.12502
lthumb -10.3958 45.7023
rfemur -1.79966 6.24813 33.7169
rtibia 35.903
rfoot -11.9856 -7.68879
rtoes -23.107
lfemur -44.0621 12.1763 -12.174
ltibia 109.869
lfoot 6.76131 -5.19428
ltoes -7.45298
61
root -0.791945 17.5461 2.16398 6.14333 -4.84277 -9.12729
lowerback 18.593 0.635213 8.35721
upperback 1.81563 2.72009 2.08028
thorax -8.17429 1.05124 -3.16261
lowerneck -5.61857 1.13311 1.07885
upperneck -9.32618 1.21642 -4.13425
head -1.9437 0.646253 -1.48843
rclavicle 2.25931e-014 4.38693e-014
rhumerus -15.5332 14.5925 -75.8895
rradius 108.217
rwrist -8.81171
rhand -37.9526 36.4905
rfingers 7.12502
rthumb -10.9936 6.79838
lclavicle 2.25931e-014 4.38693e-014
lhumerus -55.4607 -13.2902 94.7227
lradius 106.391
lwrist 30.0435
lhand -35.4257 8.95836
lfingers 7.12502
lthumb -8.55558 38.765
rfemur 0.829606 6.26905 33.5632
rtibia 34.0384
rfoot -9.53946 -6.65643
rtoes -23.3598
lfemur -45.5216 10.4122 -12.6449
ltibia 106.851
lfoot 5.40024 -4.33264
ltoes -10.979
